<svg width="12" height="12" viewBox="0 0 12 12" fill="none"
  xmlns="http://www.w3.org/2000/svg">
  <g id="pickable-off">
    <g id="Union">
      <path d="M9.27305 4.40207L9.45305 4.43207C10.133 4.55207 10.6408 5.16104 10.6408 5.86104V7.16104C10.6408 8.10787 10.6408 8.67486 10.5451 9.12897L9.89141 8.47524C9.91305 8.14463 9.91305 7.719 9.91305 7.14207V5.84207C9.91305 5.51207 9.68305 5.22207 9.36305 5.17207L9.18305 5.14207C9.18305 5.14207 9.11305 5.13207 9.11305 5.21207V5.74207C9.11305 5.95207 8.94305 6.12207 8.73305 6.12207C8.52305 6.12207 8.35305 5.95207 8.35305 5.74207V5.21207C8.35305 4.83207 8.05305 4.53207 7.69305 4.53207C7.61305 4.53207 7.55305 4.60207 7.55305 4.68207V5.20207C7.55305 5.41207 7.38305 5.58207 7.17305 5.58207C6.96305 5.58207 6.79305 5.41207 6.79305 5.20207V4.67207C6.79305 4.52207 6.74305 4.37207 6.65305 4.25207C6.55305 4.13207 6.43305 4.05207 6.28305 4.01207C6.27087 4.01033 6.25626 4.00798 6.24018 4.0054C6.16387 3.99314 6.05435 3.97555 6.01305 3.99207C6.01305 3.99207 5.99305 4.04207 5.99305 4.15207V4.57688L5.23305 3.81688V1.78207C5.23305 1.56207 5.05305 1.37207 4.83305 1.37207C4.61305 1.37207 4.43305 1.55207 4.43305 1.78207V3.01688L3.69305 2.27688V1.78207C3.69305 1.14207 4.20305 0.62207 4.84305 0.62207C5.48305 0.62207 5.99305 1.14207 5.99305 1.78207V3.24207C6.16305 3.23207 6.32305 3.26207 6.42305 3.28207C6.77305 3.37207 7.05305 3.55207 7.24305 3.80207C7.25387 3.8129 7.25884 3.82666 7.26429 3.84176C7.26891 3.85455 7.27387 3.86831 7.28305 3.88207C7.40305 3.82207 7.53305 3.78207 7.67305 3.78207C8.17305 3.78207 8.61305 4.05207 8.86305 4.45207C8.86971 4.44874 8.87638 4.44429 8.88305 4.43985C8.89638 4.43096 8.90971 4.42207 8.92305 4.42207C9.03305 4.39207 9.15305 4.38207 9.27305 4.40207Z" fill="black"/>
      <path fill-rule="evenodd" clip-rule="evenodd" d="M3.69305 5.10906V6.11207L3.50305 5.92207C3.38305 5.79207 3.23305 5.69207 3.06305 5.63207C2.90305 5.57207 2.72305 5.54207 2.54305 5.55207C2.36305 5.56207 2.19305 5.61207 2.04305 5.69207C1.88305 5.77207 1.74305 5.89207 1.64305 6.03207C1.47305 6.23207 1.37305 6.51207 1.37305 6.78207C1.37305 7.06207 1.45305 7.33207 1.62305 7.55207L3.17305 9.67207C3.52305 10.1521 3.72305 10.4221 3.96305 10.6421C4.33305 10.9721 4.77305 11.1921 5.25305 11.3021C5.56305 11.3721 5.87305 11.3721 6.48305 11.3721C7.64305 11.3721 8.22305 11.3721 8.74305 11.1721C8.97752 11.0819 9.19393 10.9592 9.39443 10.8104L10.1904 11.6065L10.8975 10.8993L1.70515 1.70696L0.998047 2.41406L3.69305 5.10906ZM4.43305 5.84906V7.05207C4.43305 7.21207 4.34305 7.34207 4.20305 7.40207C4.06305 7.45207 3.90305 7.42207 3.79305 7.31207L2.96305 6.45207C2.91305 6.39207 2.85305 6.36207 2.79305 6.33207C2.73305 6.30207 2.66305 6.30207 2.59305 6.30207C2.52305 6.30207 2.45305 6.32207 2.39305 6.35207C2.32305 6.38207 2.27305 6.43207 2.23305 6.48207C2.16305 6.57207 2.12305 6.69207 2.12305 6.80207C2.12305 6.91207 2.15305 7.03207 2.22305 7.12207L3.77305 9.23207C4.10305 9.69207 4.27305 9.92207 4.45305 10.0821C4.73305 10.3221 5.06305 10.4921 5.41305 10.5721C5.64305 10.6221 5.92305 10.6221 6.48305 10.6221C7.55305 10.6221 8.08305 10.6221 8.46305 10.4721C8.60165 10.4195 8.7334 10.3532 8.85721 10.2732L4.43305 5.84906Z" fill="black"/>
    </g>
  </g>
</svg>
