<svg width="24" height="24" viewBox="0 0 24 24" fill="none"
  xmlns="http://www.w3.org/2000/svg">
  <path d="M12 3V4C12 4 11.9948 3.99998 11.9847 4.00305C11.9736 4.00645 11.9515 4.01483 11.9186 4.03507C11.8494 4.07752 11.7455 4.16408 11.6177 4.32624C11.3575 4.65642 11.0794 5.19616 10.8274 5.95227C10.5429 6.80573 10.3145 7.86478 10.1704 9.06203C10.7612 9.02137 11.3731 9 12 9C12.2776 9 12.5524 9.00419 12.8236 9.01239C12.8634 9.33715 12.8971 9.67221 12.924 10.0162C12.6211 10.0055 12.3128 10 12 10C11.3341 10 10.6887 10.025 10.0718 10.0718C10.025 10.6887 10 11.3341 10 12C10 12.3128 10.0055 12.6211 10.0162 12.924C9.67221 12.8971 9.33715 12.8634 9.01239 12.8236C9.00419 12.5524 9 12.2776 9 12C9 11.3731 9.02137 10.7612 9.06203 10.1704C7.86478 10.3145 6.80573 10.5429 5.95227 10.8274C5.19616 11.0794 4.65642 11.3575 4.32624 11.6177C4.16408 11.7455 4.07752 11.8494 4.03507 11.9186C4.01483 11.9515 4.00645 11.9736 4.00305 11.9847C3.99998 11.9948 4 12 4 12H3C3 10.6748 5.57782 9.55025 9.15318 9.15318C9.55025 5.57782 10.6748 3 12 3Z" fill="currentColor" fill-opacity="0.25"/>
  <path d="M9.06203 13.8296C9.3438 17.9229 10.5521 21 12 21V20C12 20 11.9951 20.0001 11.9847 19.9969C11.9736 19.9935 11.9515 19.9852 11.9186 19.9649C11.8494 19.9225 11.7455 19.8359 11.6177 19.6738C11.3575 19.3436 11.0794 18.8038 10.8274 18.0477C10.4652 16.9613 10.1941 15.5419 10.0718 13.9282C9.7258 13.902 9.38877 13.869 9.06203 13.8296Z" fill="currentColor" fill-opacity="0.25"/>
  <path d="M13.8296 9.06203C17.9229 9.3438 21 10.5521 21 12H20C20 12 20.0001 11.9951 19.9969 11.9847C19.9935 11.9736 19.9852 11.9515 19.9649 11.9186C19.9225 11.8494 19.8359 11.7455 19.6738 11.6177C19.3436 11.3575 18.8038 11.0794 18.0477 10.8274C16.9613 10.4652 15.5419 10.1941 13.9282 10.0718C13.902 9.72581 13.869 9.38877 13.8296 9.06203Z" fill="currentColor" fill-opacity="0.25"/>
  <path d="M3 12C3 13.6569 7.02944 15 12 15C16.9706 15 21 13.6569 21 12H20C20 12 20 12.0052 19.9969 12.0153C19.9935 12.0264 19.9852 12.0485 19.9649 12.0814C19.9225 12.1506 19.8359 12.2545 19.6738 12.3823C19.3436 12.6425 18.8038 12.9206 18.0477 13.1726C16.546 13.6732 14.4077 14 12 14C9.59229 14 7.45402 13.6732 5.95227 13.1726C5.19616 12.9206 4.65642 12.6425 4.32624 12.3823C4.16408 12.2545 4.07752 12.1506 4.03507 12.0814C4.01483 12.0485 4.00645 12.0264 4.00305 12.0153C4.00018 12.0059 4 12 4 12H3Z" fill="currentColor"/>
  <path d="M12 3C13.6569 3 15 7.02944 15 12C15 16.9706 13.6569 21 12 21V20C12 20 12.0052 20 12.0153 19.9969C12.0264 19.9935 12.0484 19.9852 12.0814 19.9649C12.1506 19.9225 12.2545 19.8359 12.3823 19.6738C12.6425 19.3436 12.9206 18.8038 13.1726 18.0477C13.6732 16.546 14 14.4077 14 12C14 9.59229 13.6732 7.45402 13.1726 5.95227C12.9206 5.19616 12.6425 4.65642 12.3823 4.32624C12.2545 4.16408 12.1506 4.07752 12.0814 4.03507C12.0485 4.01483 12.0264 4.00645 12.0153 4.00305C12.0059 4.00018 12 4 12 4V3Z" fill="currentColor"/>
  <circle cx="12" cy="12" r="9.75" stroke="currentColor" stroke-width="1.5"/>
</svg>
