<svg width="24" height="24" viewBox="0 0 24 24" fill="none"
  xmlns="http://www.w3.org/2000/svg">
  <g id="World">
    <circle id="Ellipse 65" cx="12" cy="12" r="8.75" stroke="currentColor" stroke-width="1.5"/>
    <path id="Ellipse 70" d="M7.5 12C7.5 14.2699 7.95897 16.3497 8.72436 17.8805C9.47479 19.3813 10.604 20.5 12 20.5C13.396 20.5 14.5252 19.3813 15.2756 17.8805C16.041 16.3497 16.5 14.2699 16.5 12C16.5 9.73007 16.041 7.65031 15.2756 6.11954C14.5252 4.61867 13.396 3.5 12 3.5C10.604 3.5 9.47479 4.61867 8.72436 6.11954C7.95897 7.65031 7.5 9.73007 7.5 12Z" stroke="currentColor"/>
    <path id="Intersect" fill-rule="evenodd" clip-rule="evenodd" d="M17.864 6.55762C17.6746 6.6843 17.4576 6.81039 17.2102 6.93407C15.9286 7.57487 14.0881 8.00007 12.0006 8.00007C9.913 8.00007 8.07251 7.57487 6.79091 6.93407C6.54355 6.81039 6.32653 6.68429 6.13709 6.55762C5.90973 6.80245 5.69752 7.06154 5.50195 7.3334C6.95419 8.34278 9.32385 9.00007 12.0006 9.00007C14.6773 9.00007 17.0469 8.34278 18.4992 7.3334C18.3036 7.06154 18.0914 6.80245 17.864 6.55762ZM18.4992 16.6667C17.0469 15.6574 14.6773 15.0001 12.0006 15.0001C9.32386 15.0001 6.95419 15.6574 5.50195 16.6667C5.69752 16.9386 5.90973 17.1977 6.13709 17.4425C6.32654 17.3158 6.54355 17.1898 6.79091 17.0661C8.07251 16.4253 9.913 16.0001 12.0006 16.0001C14.0881 16.0001 15.9286 16.4253 17.2102 17.0661C17.4576 17.1898 17.6746 17.3158 17.864 17.4425C18.0914 17.1977 18.3036 16.9386 18.4992 16.6667Z" fill="currentColor" fill-opacity="0.25"/>
    <path id="Line 100" d="M3 12H21" stroke="currentColor"/>
    <path id="Line 101" d="M12 3L12 21" stroke="currentColor"/>
  </g>
</svg>
